<svg width="18" height="18" viewBox="0 0 18 18" fill="none" xmlns="http://www.w3.org/2000/svg">
<path d="M13.6333 0.252319H4.34852C2.08623 0.252319 0.252289 2.08627 0.252289 4.34855V13.6333C0.252289 15.8956 2.08623 17.7296 4.34852 17.7296H13.6333C15.8956 17.7296 17.7295 15.8956 17.7295 13.6333V4.34855C17.7295 2.08627 15.8956 0.252319 13.6333 0.252319Z" fill="url(#paint0_radial_7_38)"/>
<path d="M13.6333 0.252319H4.34852C2.08623 0.252319 0.252289 2.08627 0.252289 4.34855V13.6333C0.252289 15.8956 2.08623 17.7296 4.34852 17.7296H13.6333C15.8956 17.7296 17.7295 15.8956 17.7295 13.6333V4.34855C17.7295 2.08627 15.8956 0.252319 13.6333 0.252319Z" fill="url(#paint1_radial_7_38)"/>
<path d="M8.99153 2C7.09294 2 6.85462 2.00832 6.10897 2.04222C5.36472 2.07634 4.85669 2.19414 4.41221 2.36702C3.95235 2.54556 3.56233 2.78444 3.17377 3.17313C2.78487 3.56175 2.54599 3.95177 2.36688 4.41142C2.19351 4.85604 2.07557 5.36427 2.04209 6.10816C2.00874 6.85388 2 7.09226 2 8.9909C2 10.8895 2.00839 11.1271 2.04223 11.8727C2.07648 12.617 2.19428 13.125 2.36702 13.5695C2.54571 14.0293 2.78459 14.4194 3.17328 14.8079C3.56177 15.1968 3.95179 15.4362 4.4113 15.6148C4.85613 15.7877 5.36423 15.9055 6.10834 15.9396C6.85406 15.9735 7.09217 15.9818 8.99069 15.9818C10.8895 15.9818 11.127 15.9735 11.8727 15.9396C12.6169 15.9055 13.1255 15.7877 13.5704 15.6148C14.03 15.4362 14.4195 15.1968 14.8079 14.8079C15.1968 14.4194 15.4356 14.0293 15.6148 13.5697C15.7866 13.125 15.9046 12.6168 15.9396 11.8729C15.9731 11.1272 15.9818 10.8895 15.9818 8.9909C15.9818 7.09226 15.9731 6.85402 15.9396 6.1083C15.9046 5.36406 15.7866 4.85611 15.6148 4.41163C15.4356 3.95177 15.1968 3.56175 14.8079 3.17313C14.4191 2.7843 14.0302 2.54542 13.5699 2.36709C13.1243 2.19414 12.616 2.07627 11.8717 2.04222C11.126 2.00832 10.8886 2 8.98937 2H8.99153ZM8.36438 3.25982C8.55055 3.25954 8.75825 3.25982 8.99153 3.25982C10.8582 3.25982 11.0794 3.26653 11.8165 3.30002C12.4981 3.33119 12.8681 3.44508 13.1145 3.54078C13.4408 3.66745 13.6733 3.81895 13.9179 4.06369C14.1626 4.30837 14.314 4.54138 14.441 4.86764C14.5367 5.11372 14.6507 5.48367 14.6818 6.16528C14.7153 6.90225 14.7225 7.12358 14.7225 8.9893C14.7225 10.855 14.7153 11.0764 14.6818 11.8133C14.6506 12.4949 14.5367 12.8649 14.441 13.111C14.3143 13.4373 14.1626 13.6696 13.9179 13.9141C13.6732 14.1588 13.4409 14.3102 13.1145 14.437C12.8683 14.5331 12.4981 14.6467 11.8165 14.6779C11.0795 14.7114 10.8582 14.7186 8.99153 14.7186C7.12482 14.7186 6.90356 14.7114 6.16665 14.6779C5.48504 14.6464 5.11508 14.5325 4.86844 14.4368C4.54224 14.3101 4.30917 14.1587 4.06448 13.914C3.8198 13.6693 3.66838 13.4369 3.54135 13.1105C3.44565 12.8643 3.33163 12.4944 3.30059 11.8128C3.2671 11.0758 3.26039 10.8545 3.26039 8.98755C3.26039 7.12065 3.2671 6.9005 3.30059 6.16353C3.33177 5.48192 3.44565 5.11197 3.54135 4.86554C3.6681 4.53928 3.8198 4.30628 4.06455 4.0616C4.30931 3.81692 4.54224 3.66543 4.86851 3.53847C5.11494 3.44235 5.48504 3.32875 6.16665 3.29743C6.81156 3.26828 7.06148 3.25954 8.36438 3.25807V3.25982ZM12.7233 4.42058C12.2601 4.42058 11.8844 4.79598 11.8844 5.2592C11.8844 5.72234 12.2601 6.0981 12.7233 6.0981C13.1864 6.0981 13.5622 5.72234 13.5622 5.2592C13.5622 4.79605 13.1864 4.4203 12.7233 4.4203V4.42058ZM8.99153 5.40076C7.00891 5.40076 5.40142 7.00823 5.40142 8.9909C5.40142 10.9736 7.00891 12.5803 8.99153 12.5803C10.9742 12.5803 12.5812 10.9736 12.5812 8.9909C12.5812 7.0083 10.9741 5.40076 8.99139 5.40076H8.99153ZM8.99153 6.66058C10.2785 6.66058 11.3219 7.70382 11.3219 8.9909C11.3219 10.2778 10.2785 11.3212 8.99153 11.3212C7.70458 11.3212 6.66125 10.2778 6.66125 8.9909C6.66125 7.70382 7.70451 6.66058 8.99153 6.66058Z" fill="white"/>
<defs>
<radialGradient id="paint0_radial_7_38" cx="0" cy="0" r="1" gradientUnits="userSpaceOnUse" gradientTransform="translate(4.89469 19.0757) rotate(-90) scale(17.3213 16.1101)">
<stop stop-color="#FFDD55"/>
<stop offset="0.1" stop-color="#FFDD55"/>
<stop offset="0.5" stop-color="#FF543E"/>
<stop offset="1" stop-color="#C837AB"/>
</radialGradient>
<radialGradient id="paint1_radial_7_38" cx="0" cy="0" r="1" gradientUnits="userSpaceOnUse" gradientTransform="translate(-2.67522 1.5113) rotate(78.681) scale(7.7427 31.9157)">
<stop stop-color="#3771C8"/>
<stop offset="0.128" stop-color="#3771C8"/>
<stop offset="1" stop-color="#6600FF" stop-opacity="0"/>
</radialGradient>
</defs>
</svg>
