<svg width="32" height="33" viewBox="0 0 32 33" fill="none" xmlns="http://www.w3.org/2000/svg">
<path d="M19.1458 24.9792V21.7083C19.1458 21.0139 18.9444 20.6667 18.5417 20.6667C18.3056 20.6667 18.0764 20.7778 17.8542 21V25.6667C18.0764 25.8889 18.3056 26 18.5417 26C18.9444 26 19.1458 25.6597 19.1458 24.9792ZM22.9792 22.4375H24.3542V21.7292C24.3542 21.0208 24.125 20.6667 23.6667 20.6667C23.2083 20.6667 22.9792 21.0208 22.9792 21.7292V22.4375ZM11.0833 16.8958V18.3542H9.41667V27.1667H7.875V18.3542H6.25V16.8958H11.0833ZM15.2708 19.5208V27.1667H13.875V26.3333C13.3333 26.9583 12.8056 27.2708 12.2917 27.2708C11.8333 27.2708 11.5417 27.0764 11.4167 26.6875C11.3333 26.4514 11.2917 26.0764 11.2917 25.5625V19.5208H12.6667V25.1458C12.6667 25.4792 12.6736 25.6597 12.6875 25.6875C12.7014 25.8958 12.8056 26 13 26C13.2778 26 13.5694 25.7847 13.875 25.3542V19.5208H15.2708ZM20.5208 21.8333V24.875C20.5208 25.5972 20.4722 26.1042 20.375 26.3958C20.2083 26.9792 19.8403 27.2708 19.2708 27.2708C18.7847 27.2708 18.3125 26.9861 17.8542 26.4167V27.1667H16.4583V16.8958H17.8542V20.25C18.2986 19.6944 18.7708 19.4167 19.2708 19.4167C19.8403 19.4167 20.2083 19.7083 20.375 20.2917C20.4722 20.5833 20.5208 21.0972 20.5208 21.8333ZM25.75 24.5208V24.7083C25.75 25.1111 25.7361 25.4097 25.7083 25.6042C25.6667 25.9097 25.5625 26.1875 25.3958 26.4375C25.0208 26.9931 24.4653 27.2708 23.7292 27.2708C23.0069 27.2708 22.4444 27.0069 22.0417 26.4792C21.75 26.1042 21.6042 25.5069 21.6042 24.6875V22C21.6042 21.1806 21.7431 20.5833 22.0208 20.2083C22.4236 19.6806 22.9792 19.4167 23.6875 19.4167C24.3958 19.4167 24.9375 19.6806 25.3125 20.2083C25.6042 20.6111 25.75 21.2083 25.75 22V23.5833H22.9792V24.9375C22.9792 25.6458 23.2153 26 23.6875 26C24.0208 26 24.2292 25.8194 24.3125 25.4583C24.3125 25.4444 24.316 25.3958 24.3229 25.3125C24.3299 25.2292 24.3333 25.1146 24.3333 24.9688V24.5208H25.75ZM16.3542 7.35417V10.6042C16.3542 11.3125 16.1319 11.6667 15.6875 11.6667C15.2431 11.6667 15.0208 11.3125 15.0208 10.6042V7.35417C15.0208 6.63194 15.2431 6.27083 15.6875 6.27083C16.1319 6.27083 16.3542 6.63194 16.3542 7.35417ZM27.4583 22.2083C27.4583 19.75 27.3264 17.9444 27.0625 16.7917C26.9236 16.1806 26.625 15.6701 26.1667 15.2604C25.7083 14.8507 25.1806 14.6111 24.5833 14.5417C22.6944 14.3333 19.8333 14.2292 16 14.2292C12.1806 14.2292 9.32639 14.3333 7.4375 14.5417C6.82639 14.6111 6.29514 14.8507 5.84375 15.2604C5.39236 15.6701 5.09722 16.1806 4.95833 16.7917C4.68056 18 4.54167 19.8056 4.54167 22.2083C4.54167 24.6528 4.68056 26.4583 4.95833 27.625C5.09722 28.2222 5.39236 28.7292 5.84375 29.1458C6.29514 29.5625 6.81944 29.8056 7.41667 29.875C9.31944 30.0833 12.1806 30.1875 16 30.1875C19.8194 30.1875 22.6806 30.0833 24.5833 29.875C25.1806 29.8056 25.7049 29.5625 26.1562 29.1458C26.6076 28.7292 26.9028 28.2222 27.0417 27.625C27.3194 26.4583 27.4583 24.6528 27.4583 22.2083ZM11.7292 8.64583L13.6042 2.47917H12.0417L10.9792 6.54167L9.875 2.47917H8.25C8.34722 2.79861 8.50694 3.27778 8.72917 3.91667L9.22917 5.35417C9.71528 6.78472 10.0347 7.88194 10.1875 8.64583V12.8333H11.7292V8.64583ZM17.75 10.3333V7.625C17.75 6.81944 17.6042 6.21528 17.3125 5.8125C16.9097 5.28472 16.3681 5.02083 15.6875 5.02083C14.9792 5.02083 14.4375 5.28472 14.0625 5.8125C13.7708 6.21528 13.625 6.81944 13.625 7.625V10.3333C13.625 11.1389 13.7708 11.7431 14.0625 12.1458C14.4375 12.6736 14.9792 12.9375 15.6875 12.9375C16.3681 12.9375 16.9097 12.6736 17.3125 12.1458C17.6042 11.7708 17.75 11.1667 17.75 10.3333ZM21.5208 12.8333H22.9167V5.125H21.5208V11.0208C21.2153 11.4514 20.9236 11.6667 20.6458 11.6667C20.4375 11.6667 20.3264 11.5556 20.3125 11.3333C20.2986 11.3056 20.2917 11.125 20.2917 10.7917V5.125H18.8958V11.2292C18.8958 11.7431 18.9375 12.125 19.0208 12.375C19.1736 12.75 19.4722 12.9375 19.9167 12.9375C20.4167 12.9375 20.9514 12.625 21.5208 12V12.8333ZM32 6.5V26.5C32 28.1528 31.4132 29.566 30.2396 30.7396C29.066 31.9132 27.6528 32.5 26 32.5H6C4.34722 32.5 2.93403 31.9132 1.76042 30.7396C0.586806 29.566 0 28.1528 0 26.5V6.5C0 4.84722 0.586806 3.43403 1.76042 2.26042C2.93403 1.08681 4.34722 0.5 6 0.5H26C27.6528 0.5 29.066 1.08681 30.2396 2.26042C31.4132 3.43403 32 4.84722 32 6.5Z" fill="#FF0000"/>
</svg>
